<svg width="14" height="19" viewBox="0 0 14 19" fill="none" xmlns="http://www.w3.org/2000/svg">
<g clip-path="url(#clip0_1_2569)">
<path d="M11.6418 10.1965C11.6348 8.90625 12.2184 7.93242 13.3996 7.21523C12.7387 6.26953 11.7402 5.74922 10.4219 5.64727C9.17383 5.54883 7.80977 6.375 7.31055 6.375C6.7832 6.375 5.57383 5.68242 4.62461 5.68242C2.66289 5.71406 0.578125 7.24688 0.578125 10.3652C0.578125 11.2863 0.746875 12.2379 1.08437 13.2199C1.53438 14.5102 3.15859 17.6742 4.85313 17.6215C5.73906 17.6004 6.36484 16.9922 7.51797 16.9922C8.63594 16.9922 9.21601 17.6215 10.2039 17.6215C11.9125 17.5969 13.382 14.7211 13.8109 13.4273C11.5188 12.348 11.6418 10.2633 11.6418 10.1965ZM9.65195 4.42383C10.6117 3.28477 10.5238 2.24766 10.4957 1.875C9.64844 1.92422 8.66758 2.45156 8.10859 3.10195C7.49336 3.79805 7.13125 4.65938 7.20859 5.62969C8.12617 5.7 8.96289 5.22891 9.65195 4.42383Z" fill="white"/>
</g>
<defs>
<clipPath id="clip0_1_2569">
<path d="M0.4375 0.75H13.9375V18.75H0.4375V0.75Z" fill="white"/>
</clipPath>
</defs>
</svg>
